<svg width="33" height="33" viewBox="0 0 33 33" fill="none" xmlns="http://www.w3.org/2000/svg">
<path d="M16.6668 3.33331C14.9158 3.33331 13.182 3.67819 11.5643 4.34825C9.94665 5.01832 8.47679 6.00044 7.23868 7.23856C4.73819 9.73904 3.33344 13.1304 3.33344 16.6666C3.33344 22.56 7.1601 27.56 12.4534 29.3333C13.1201 29.44 13.3334 29.0266 13.3334 28.6666V26.4133C9.6401 27.2133 8.85343 24.6266 8.85343 24.6266C8.2401 23.08 7.37344 22.6666 7.37344 22.6666C6.1601 21.84 7.46677 21.8666 7.46677 21.8666C8.8001 21.96 9.50677 23.24 9.50677 23.24C10.6668 25.2666 12.6268 24.6666 13.3868 24.3466C13.5068 23.48 13.8534 22.8933 14.2268 22.56C11.2668 22.2266 8.1601 21.08 8.1601 16C8.1601 14.52 8.66677 13.3333 9.53343 12.3866C9.4001 12.0533 8.93343 10.6666 9.66677 8.86665C9.66677 8.86665 10.7868 8.50665 13.3334 10.2266C14.3868 9.93331 15.5334 9.78665 16.6668 9.78665C17.8001 9.78665 18.9468 9.93331 20.0001 10.2266C22.5468 8.50665 23.6668 8.86665 23.6668 8.86665C24.4001 10.6666 23.9334 12.0533 23.8001 12.3866C24.6668 13.3333 25.1734 14.52 25.1734 16C25.1734 21.0933 22.0534 22.2133 19.0801 22.5466C19.5601 22.96 20.0001 23.7733 20.0001 25.0133V28.6666C20.0001 29.0266 20.2134 29.4533 20.8934 29.3333C26.1868 27.5466 30.0001 22.56 30.0001 16.6666C30.0001 14.9157 29.6552 13.1819 28.9852 11.5642C28.3151 9.94653 27.333 8.47667 26.0949 7.23856C24.8567 6.00044 23.3869 5.01832 21.7692 4.34825C20.1515 3.67819 18.4177 3.33331 16.6668 3.33331Z" fill="white"/>
</svg>
