<svg width="38" height="37" viewBox="0 0 38 37" fill="none" xmlns="http://www.w3.org/2000/svg">
<path d="M19 35.3333C28.2047 35.3333 35.6666 27.8714 35.6666 18.6667C35.6666 9.46192 28.2047 2 19 2C9.79523 2 2.33331 9.46192 2.33331 18.6667C2.33331 27.8714 9.79523 35.3333 19 35.3333Z" stroke="url(#paint0_linear_11_265)" stroke-width="3"/>
<path d="M11.7217 5C12.6224 5.19406 13.4521 5.63318 14.1191 6.26891C14.7861 6.90463 15.2645 7.71226 15.5016 8.60267C15.7386 9.49309 15.7251 10.4317 15.4625 11.3149C15.1999 12.1981 14.6985 12.9916 14.0134 13.6079C13.3284 14.2242 12.4864 14.6392 11.5805 14.8073C10.6745 14.9753 9.73969 14.8898 8.87922 14.5602C8.01875 14.2306 7.26605 13.6698 6.70416 12.9395C6.14228 12.2092 5.79305 11.3379 5.69501 10.4217M35.6667 21.6383C35.0182 20.9768 34.2215 20.4791 33.3425 20.1867C32.4635 19.8942 31.5275 19.8152 30.6119 19.9564C29.6964 20.0975 28.8276 20.4547 28.0775 20.9984C27.3274 21.542 26.7176 22.2565 26.2985 23.0826C25.8794 23.9088 25.6631 24.8229 25.6675 25.7493C25.6719 26.6756 25.8969 27.5877 26.3238 28.4098C26.7507 29.232 27.3673 29.9406 28.1225 30.4771C28.8777 31.0136 29.7498 31.3625 30.6667 31.495" stroke="url(#paint1_linear_11_265)" stroke-width="3"/>
<path d="M23.1666 12.0183L23.1833 12M15.6666 26.1683C16.5507 26.1683 17.3985 25.8171 18.0237 25.192C18.6488 24.5669 19 23.7191 19 22.835C19 21.9509 18.6488 21.1031 18.0237 20.478C17.3985 19.8529 16.5507 19.5017 15.6666 19.5017C14.7826 19.5017 13.9347 19.8529 13.3096 20.478C12.6845 21.1031 12.3333 21.9509 12.3333 22.835C12.3333 23.7191 12.6845 24.5669 13.3096 25.192C13.9347 25.8171 14.7826 26.1683 15.6666 26.1683Z" stroke="url(#paint2_linear_11_265)" stroke-width="3" stroke-linecap="round" stroke-linejoin="round"/>
<defs>
<linearGradient id="paint0_linear_11_265" x1="19" y1="2" x2="19" y2="35.3333" gradientUnits="userSpaceOnUse">
<stop stop-color="#FF9A51"/>
<stop offset="0.479167" stop-color="#CFFF45"/>
<stop offset="1" stop-color="#E0FF22"/>
</linearGradient>
<linearGradient id="paint1_linear_11_265" x1="20.6808" y1="5" x2="20.6808" y2="31.495" gradientUnits="userSpaceOnUse">
<stop stop-color="#FF9A51"/>
<stop offset="0.479167" stop-color="#CFFF45"/>
<stop offset="1" stop-color="#E0FF22"/>
</linearGradient>
<linearGradient id="paint2_linear_11_265" x1="17.7583" y1="12" x2="17.7583" y2="26.1683" gradientUnits="userSpaceOnUse">
<stop stop-color="#FF9A51"/>
<stop offset="0.479167" stop-color="#CFFF45"/>
<stop offset="1" stop-color="#E0FF22"/>
</linearGradient>
</defs>
</svg>
